<?xml version="1.0" standalone="no"?><!DOCTYPE svg PUBLIC "-//W3C//DTD SVG 1.1//EN" "http://www.w3.org/Graphics/SVG/1.1/DTD/svg11.dtd"><svg t="1540746068954" class="icon" style="" viewBox="0 0 1024 1024" version="1.1" xmlns="http://www.w3.org/2000/svg" p-id="13405" xmlns:xlink="http://www.w3.org/1999/xlink" width="200" height="200"><defs><style type="text/css"></style></defs><path d="M957.792 384l-56.192 0-1.184 0c-35.168 0-65.984-29.728-68.384-64l0 0C832 137.344 684.736 0 500.8 0l-167.84 0C149.184 0 0.128 148 0 330.656l0 362.784C0 876.128 149.184 1024 332.992 1024l358.432 0C875.36 1024 1024 876.128 1024 693.472L1024 459.072C1024 422.592 994.56 384 957.792 384zM320 256l192 0c35.2 0 64 28.8 64 64s-28.8 64-64 64l-192 0c-35.2 0-64-28.8-64-64S284.8 256 320 256zM704 768 320 768c-35.2 0-64-28.8-64-64s28.8-64 64-64l384 0c35.2 0 64 28.8 64 64S739.2 768 704 768z" p-id="13406" fill="#2c2c2c"></path></svg>