<?xml version="1.0" standalone="no"?><!DOCTYPE svg PUBLIC "-//W3C//DTD SVG 1.1//EN" "http://www.w3.org/Graphics/SVG/1.1/DTD/svg11.dtd"><svg t="1540735924536" class="icon" style="" viewBox="0 0 1024 1024" version="1.1" xmlns="http://www.w3.org/2000/svg" p-id="2206" xmlns:xlink="http://www.w3.org/1999/xlink" width="200" height="200"><defs><style type="text/css"></style></defs><path d="M526.58109 210.351845 526.58109 74.509994l427.377694 0 0 135.840828L526.58109 210.350822 526.58109 210.351845z" p-id="2207"></path><path d="M526.58109 417.510976 526.58109 281.670148l427.377694 0 0 135.840828L526.58109 417.510976 526.58109 417.510976z" p-id="2208"></path><path d="M526.58109 742.356458 526.58109 606.462418l427.377694 0 0 135.89404L526.58109 742.356458 526.58109 742.356458z" p-id="2209"></path><path d="M526.58109 949.488982 526.58109 813.648155l427.377694 0 0 135.840828L526.58109 949.488982 526.58109 949.488982z" p-id="2210"></path><path d="M410.898371 418.701081 70.040193 418.701081 70.040193 77.839833l340.858178 0L410.898371 418.701081z" p-id="2211"></path><path d="M410.898371 948.534238 70.040193 948.534238 70.040193 607.67606l340.858178 0L410.898371 948.534238z" p-id="2212"></path></svg>