<?xml version="1.0" standalone="no"?><!DOCTYPE svg PUBLIC "-//W3C//DTD SVG 1.1//EN" "http://www.w3.org/Graphics/SVG/1.1/DTD/svg11.dtd"><svg t="1539690605919" class="icon" style="" viewBox="0 0 1024 1024" version="1.1" xmlns="http://www.w3.org/2000/svg" p-id="4633" xmlns:xlink="http://www.w3.org/1999/xlink" width="200" height="200"><defs><style type="text/css"></style></defs><path d="M797.40128 309.152l-202.848 202.848 202.848 202.848 82.272-82.272q16.576-17.728 40-8 22.272 9.728 22.272 33.728l0 256q0 14.848-10.848 25.728t-25.728 10.848l-256 0q-24 0-33.728-22.848-9.728-22.272 8-39.424l82.272-82.272-202.848-202.848-202.848 202.848 82.272 82.272q17.728 17.152 8 39.424-9.728 22.848-33.728 22.848l-256 0q-14.848 0-25.728-10.848t-10.848-25.728l0-256q0-24 22.848-33.728 22.272-9.728 39.424 8l82.272 82.272 202.848-202.848-202.848-202.848-82.272 82.272q-10.848 10.848-25.728 10.848-6.848 0-13.728-2.848-22.848-9.728-22.848-33.728l0-256q0-14.848 10.848-25.728t25.728-10.848l256 0q24 0 33.728 22.848 9.728 22.272-8 39.424l-82.272 82.272 202.848 202.848 202.848-202.848-82.272-82.272q-17.728-17.152-8-39.424 9.728-22.848 33.728-22.848l256 0q14.848 0 25.728 10.848t10.848 25.728l0 256q0 24-22.272 33.728-7.424 2.848-14.272 2.848-14.848 0-25.728-10.848z" p-id="4634" fill="#ffffff"></path></svg>